0
SECTION
2
HEADER
9
$INSUNITS
70
4
9
$ACADVER
1
AC1014
9
$HANDSEED
5
FFFF
0
ENDSEC
0
SECTION
2
TABLES
0
TABLE
2
VPORT
5
8
100
AcDbSymbolTable
0
ENDTAB
0
TABLE
2
LTYPE
5
5
100
AcDbSymbolTable
0
LTYPE
5
14
100
AcDbSymbolTableRecord
100
AcDbLinetypeTableRecord
2
BYBLOCK
70
0
0
LTYPE
5
15
100
AcDbSymbolTableRecord
100
AcDbLinetypeTableRecord
2
BYLAYER
70
0
0
LTYPE
5
16
100
AcDbSymbolTableRecord
100
AcDbLinetypeTableRecord
2
DASHED
70
0
3
Dashed __ __ __ __ __ __ __ __ __ __ __ __ __ _
72
65
73
2
40
0.75
49
0.5
74
0
49
-0.25
74
0
0
ENDTAB
0
TABLE
2
LAYER
5
2
100
AcDbSymbolTable
70
2
0
LAYER
5
50
100
AcDbSymbolTableRecord
100
AcDbLayerTableRecord
2
0
70
0
62
7
6
CONTINUOUS
0
ENDTAB
0
TABLE
2
STYLE
5
3
100
AcDbSymbolTable
70
1
0
STYLE
5
11
100
AcDbSymbolTableRecord
100
AcDbTextStyleTableRecord
2
STANDARD
70
0
0
ENDTAB
0
TABLE
2
VIEW
5
6
100
AcDbSymbolTable
70
0
0
ENDTAB
0
TABLE
2
UCS
5
7
100
AcDbSymbolTable
70
0
0
ENDTAB
0
TABLE
2
APPID
5
9
100
AcDbSymbolTable
70
2
0
APPID
5
12
100
AcDbSymbolTableRecord
100
AcDbRegAppTableRecord
2
ACAD
70
0
0
ENDTAB
0
TABLE
2
DIMSTYLE
5
A
100
AcDbSymbolTable
70
1
0
ENDTAB
0
TABLE
2
BLOCK_RECORD
5
1
100
AcDbSymbolTable
70
1
0
BLOCK_RECORD
5
1F
100
AcDbSymbolTableRecord
100
AcDbBlockTableRecord
2
*MODEL_SPACE
0
BLOCK_RECORD
5
1B
100
AcDbSymbolTableRecord
100
AcDbBlockTableRecord
2
*PAPER_SPACE
0
ENDTAB
0
ENDSEC
0
SECTION
2
BLOCKS
0
BLOCK
5
20
100
AcDbEntity
100
AcDbBlockBegin
2
*MODEL_SPACE
0
ENDBLK
5
21
100
AcDbEntity
100
AcDbBlockEnd
0
BLOCK
5
1C
100
AcDbEntity
100
AcDbBlockBegin
2
*PAPER_SPACE
0
ENDBLK
5
1D
100
AcDbEntity
100
AcDbBlockEnd
0
ENDSEC
0
SECTION
2
ENTITIES
0
CIRCLE
5
100
100
AcDbEntity
8
0
100
AcDbCircle
10
-1.938016256032502
20
-10.049982236908001
30
0
40
1.4999999999999991
210
1.0686317844658893e-130
220
-5.0069901334519144e-212
230
1
0
CIRCLE
5
101
100
AcDbEntity
8
0
100
AcDbCircle
10
-1.938016256032502
20
-60.049982981966068
30
0
40
1.4999999999999991
210
1.0686317844658893e-130
220
-5.0069901334519144e-212
230
1
0
CIRCLE
5
102
100
AcDbEntity
8
0
100
AcDbCircle
10
-9.9380162560325029
20
-10.049982236908001
30
0
40
1.4999999999999991
210
1.0686317844658893e-130
220
-5.0069901334519144e-212
230
1
0
CIRCLE
5
103
100
AcDbEntity
8
0
100
AcDbCircle
10
-9.9380162560325029
20
-60.049982981966068
30
0
40
1.4999999999999991
210
1.0686317844658893e-130
220
-5.0069901334519144e-212
230
1
0
CIRCLE
5
104
100
AcDbEntity
8
0
100
AcDbCircle
10
-17.938016256032505
20
-10.049982236908001
30
0
40
1.4999999999999991
210
1.0686317844658893e-130
220
-5.0069901334519144e-212
230
1
0
CIRCLE
5
105
100
AcDbEntity
8
0
100
AcDbCircle
10
-17.938016256032505
20
-60.049982981966068
30
0
40
1.4999999999999991
210
1.0686317844658893e-130
220
-5.0069901334519144e-212
230
1
0
CIRCLE
5
106
100
AcDbEntity
8
0
100
AcDbCircle
10
-25.938016256032505
20
-10.049982236908001
30
0
40
1.4999999999999991
210
1.0686317844658893e-130
220
-5.0069901334519144e-212
230
1
0
CIRCLE
5
107
100
AcDbEntity
8
0
100
AcDbCircle
10
-25.938016256032505
20
-60.049982981966068
30
0
40
1.4999999999999991
210
1.0686317844658893e-130
220
-5.0069901334519144e-212
230
1
0
CIRCLE
5
108
100
AcDbEntity
8
0
100
AcDbCircle
10
-33.938016256032505
20
-10.049982236908001
30
0
40
1.4999999999999991
210
1.0686317844658893e-130
220
-5.0069901334519144e-212
230
1
0
CIRCLE
5
109
100
AcDbEntity
8
0
100
AcDbCircle
10
-33.938016256032505
20
-60.049982981966068
30
0
40
1.4999999999999991
210
1.0686317844658893e-130
220
-5.0069901334519144e-212
230
1
0
CIRCLE
5
110
100
AcDbEntity
8
0
100
AcDbCircle
10
-41.938016256032498
20
-10.049982236908001
30
0
40
1.4999999999999991
210
1.0686317844658893e-130
220
-5.0069901334519144e-212
230
1
0
CIRCLE
5
111
100
AcDbEntity
8
0
100
AcDbCircle
10
-41.938016256032498
20
-60.049982981966068
30
0
40
1.4999999999999991
210
1.0686317844658893e-130
220
-5.0069901334519144e-212
230
1
0
CIRCLE
5
112
100
AcDbEntity
8
0
100
AcDbCircle
10
-49.938016256032505
20
-10.049982236908001
30
0
40
1.4999999999999991
210
1.0686317844658893e-130
220
-5.0069901334519144e-212
230
1
0
CIRCLE
5
113
100
AcDbEntity
8
0
100
AcDbCircle
10
-49.938016256032505
20
-60.049982981966068
30
0
40
1.4999999999999991
210
1.0686317844658893e-130
220
-5.0069901334519144e-212
230
1
0
CIRCLE
5
114
100
AcDbEntity
8
0
100
AcDbCircle
10
-57.938016256032512
20
-10.049982236908001
30
0
40
1.4999999999999991
210
1.0686317844658893e-130
220
-5.0069901334519144e-212
230
1
0
CIRCLE
5
115
100
AcDbEntity
8
0
100
AcDbCircle
10
-57.938016256032512
20
-60.049982981966068
30
0
40
1.4999999999999991
210
1.0686317844658893e-130
220
-5.0069901334519144e-212
230
1
0
CIRCLE
5
116
100
AcDbEntity
8
0
100
AcDbCircle
10
-65.938016256032498
20
-10.049982236908001
30
0
40
1.4999999999999991
210
1.0686317844658893e-130
220
-5.0069901334519144e-212
230
1
0
CIRCLE
5
117
100
AcDbEntity
8
0
100
AcDbCircle
10
-65.938016256032498
20
-60.049982981966068
30
0
40
1.4999999999999991
210
1.0686317844658893e-130
220
-5.0069901334519144e-212
230
1
0
CIRCLE
5
118
100
AcDbEntity
8
0
100
AcDbCircle
10
-73.938016256032512
20
-10.049982236908001
30
0
40
1.4999999999999991
210
1.0686317844658893e-130
220
-5.0069901334519144e-212
230
1
0
CIRCLE
5
119
100
AcDbEntity
8
0
100
AcDbCircle
10
-73.938016256032512
20
-60.049982981966068
30
0
40
1.4999999999999991
210
1.0686317844658893e-130
220
-5.0069901334519144e-212
230
1
0
CIRCLE
5
120
100
AcDbEntity
8
0
100
AcDbCircle
10
-81.938016256032498
20
-10.049982236908001
30
0
40
1.4999999999999991
210
1.0686317844658893e-130
220
-5.0069901334519144e-212
230
1
0
CIRCLE
5
121
100
AcDbEntity
8
0
100
AcDbCircle
10
-81.938016256032498
20
-60.049982981966068
30
0
40
1.4999999999999991
210
1.0686317844658893e-130
220
-5.0069901334519144e-212
230
1
0
CIRCLE
5
122
100
AcDbEntity
8
0
100
AcDbCircle
10
-89.938016256032512
20
-10.049982236908001
30
0
40
1.4999999999999991
210
1.0686317844658893e-130
220
-5.0069901334519144e-212
230
1
0
CIRCLE
5
123
100
AcDbEntity
8
0
100
AcDbCircle
10
-89.938016256032512
20
-60.049982981966068
30
0
40
1.4999999999999991
210
1.0686317844658893e-130
220
-5.0069901334519144e-212
230
1
0
CIRCLE
5
124
100
AcDbEntity
8
0
100
AcDbCircle
10
-97.938016256032512
20
-10.049982236908001
30
0
40
1.4999999999999991
210
1.0686317844658893e-130
220
-5.0069901334519144e-212
230
1
0
CIRCLE
5
125
100
AcDbEntity
8
0
100
AcDbCircle
10
-97.938016256032512
20
-60.049982981966068
30
0
40
1.4999999999999991
210
1.0686317844658893e-130
220
-5.0069901334519144e-212
230
1
0
LWPOLYLINE
5
126
100
AcDbEntity
8
0
100
AcDbPolyline
90
8
70
1
43
0.0
10
-108.50000000000001
20
-0.049999999999998934
42
0.41421356237309492
10
-123.50000000000001
20
-15.050000000000001
10
-123.50000000000001
20
-55.049999999999997
42
0.41421356237309542
10
-108.50000000000001
20
-70.049999999999983
10
8.4999999999999964
20
-70.049999999999997
42
0.41421356237309553
10
23.500000000000007
20
-55.049999999999997
10
23.5
20
-15.049999999999999
42
0.4142135623730952
10
8.4999999999999947
20
-0.049999999999996714
0
ENDSEC
0
SECTION
2
OBJECTS
0
DICTIONARY
5
C
100
AcDbDictionary
3
ACAD_GROUP
350
D
3
ACAD_MLINESTYLE
350
17
0
DICTIONARY
5
D
100
AcDbDictionary
0
DICTIONARY
5
1A
330
C
100
AcDbDictionary
0
DICTIONARY
5
17
100
AcDbDictionary
0
ENDSEC
0
EOF
